<?xml version="1.0" standalone="no"?>
<!DOCTYPE svg PUBLIC "-//W3C//DTD SVG 20010904//EN"
 "http://www.w3.org/TR/2001/REC-SVG-20010904/DTD/svg10.dtd">
<svg version="1.0" xmlns="http://www.w3.org/2000/svg"
 width="500.000000pt" height="500.000000pt" viewBox="0 0 500.000000 500.000000"
 preserveAspectRatio="xMidYMid meet">

<g transform="translate(0.000000,500.000000) scale(0.100000,-0.100000)"
fill="#000000" stroke="none">
<path d="M2365 4894 c-226 -19 -489 -78 -675 -150 -784 -306 -1352 -1011
-1470 -1824 -61 -421 -21 -773 133 -1172 173 -445 460 -820 832 -1084 505
-359 1138 -497 1765 -384 263 48 547 157 785 302 575 352 978 962 1095 1658
18 104 24 421 11 555 -53 538 -303 1061 -688 1436 -360 351 -799 567 -1311
643 -105 16 -386 27 -477 20z m585 -884 c0 -15 -72 -44 -186 -75 -54 -15 -170
-49 -257 -77 -143 -44 -163 -53 -197 -89 -34 -36 -41 -39 -93 -39 -89 0 -127
20 -127 68 0 60 98 103 187 82 51 -13 59 -11 305 53 139 36 269 70 288 76 48
13 80 13 80 1z m-57 -249 c17 -17 18 -26 6 -141 -12 -120 -13 -125 -47 -162
-76 -84 -265 -148 -463 -155 l-126 -5 -37 43 c-21 24 -51 70 -68 103 -26 52
-28 62 -17 87 25 62 137 123 334 182 254 75 376 89 418 48z m737 -191 c31 -31
26 -69 -10 -83 -25 -9 -28 -15 -23 -37 11 -47 25 -62 79 -87 76 -34 88 -30 92
34 5 80 52 109 131 82 72 -25 61 -83 -15 -72 -52 7 -64 -9 -40 -55 36 -70 123
-96 166 -50 24 26 25 37 3 83 -16 33 -16 36 0 52 13 13 23 15 44 7 31 -10 48
-39 58 -96 7 -34 4 -41 -34 -78 -23 -22 -41 -45 -41 -50 0 -5 15 -25 34 -43
19 -19 41 -49 50 -66 27 -50 72 -39 78 19 2 30 7 35 28 35 29 0 50 -34 50 -83
0 -33 -18 -57 -74 -95 -30 -21 -32 -44 -10 -111 32 -92 1 -209 -74 -282 -97
-94 -232 -52 -232 73 0 34 5 46 31 67 17 14 34 26 39 26 22 0 42 -15 51 -38 8
-20 5 -30 -13 -49 -18 -19 -20 -26 -9 -33 14 -8 23 -7 73 12 37 14 67 79 75
160 5 58 3 67 -19 92 l-24 28 -47 -16 c-91 -31 -146 -15 -173 50 -19 46 -18
87 4 114 15 19 24 21 51 15 33 -7 33 -8 27 -51 -5 -41 -3 -46 19 -56 19 -8 31
-8 50 0 34 16 33 56 -4 114 -47 74 -125 118 -267 149 -172 37 -254 109 -254
220 0 94 77 152 130 99z m-2507 -71 c48 -39 87 -74 87 -79 0 -8 -163 -110
-175 -110 -6 0 -14 79 -17 173 -2 53 1 87 7 87 6 0 49 -32 98 -71z m805 -54
c2 -2 -37 -156 -78 -307 -10 -36 -16 -69 -14 -71 3 -3 54 -29 115 -58 60 -29
109 -55 109 -58 0 -27 -80 -395 -86 -401 -9 -9 -523 6 -532 15 -2 2 -8 73 -13
157 -5 84 -16 264 -24 400 -8 136 -15 268 -15 293 l0 46 268 -7 c147 -4 268
-8 270 -9z m-598 -162 c0 -16 9 -149 20 -298 11 -148 20 -290 20 -314 l0 -43
-37 6 c-105 19 -202 96 -254 201 -29 59 -32 75 -32 153 -1 74 3 94 25 137 34
65 88 117 163 154 76 39 95 40 95 4z m-350 -93 c0 -14 -38 -152 -44 -157 -5
-6 -166 108 -166 118 0 5 17 11 38 15 20 3 64 12 97 19 78 17 75 17 75 5z
m1980 -58 c0 -16 2 -31 5 -34 3 -2 31 -1 63 3 31 4 106 15 166 23 60 8 113 13
118 10 4 -3 8 -15 8 -26 0 -20 3 -21 83 -14 45 4 122 9 171 13 l88 6 -5 -29
c-3 -16 -11 -110 -18 -209 -6 -99 -14 -211 -18 -250 l-6 -70 -62 -3 -63 -3 0
210 c0 164 -3 210 -12 207 -7 -3 -47 -12 -89 -21 l-77 -17 -6 -67 c-3 -36 -8
-111 -11 -166 -9 -153 -6 -147 -68 -143 l-52 3 -3 208 c-1 114 -4 207 -5 207
-3 0 -143 -38 -171 -46 -17 -6 -18 -15 -11 -181 8 -195 9 -193 -57 -193 -26 0
-38 5 -42 18 -14 50 -89 563 -83 569 8 8 77 20 125 22 29 1 32 -2 32 -27z
m-270 -34 c0 -13 -11 -138 -25 -278 -14 -140 -25 -261 -25 -269 0 -11 -37 -12
-212 -6 -117 4 -216 10 -220 14 -5 5 -30 226 -54 489 l-7 72 272 0 271 0 0
-22z m-1701 -263 c36 -97 38 -95 -93 -95 -63 0 -117 4 -120 8 -5 9 169 142
184 142 5 0 18 -25 29 -55z m315 -293 c2 -4 -11 -66 -30 -137 -19 -72 -41
-156 -48 -187 l-14 -57 114 -55 c63 -30 114 -59 114 -63 0 -28 -80 -397 -88
-405 -11 -11 -522 11 -536 23 -4 4 -12 85 -17 181 -5 95 -13 236 -18 313 -6
77 -13 197 -17 268 l-7 127 271 0 c149 0 273 -4 276 -8z m1044 -191 c2 -25 1
-55 -3 -68 -5 -22 -10 -24 -63 -21 l-57 3 -3 68 -3 68 63 -3 63 -3 3 -44z
m-365 -108 c3 -16 16 -124 29 -242 l22 -213 34 -16 c31 -15 33 -19 30 -62 l-3
-45 -165 -7 c-91 -5 -219 -7 -285 -5 l-120 2 -3 194 -2 194 77 -7 c43 -3 122
-9 176 -13 l97 -6 0 48 0 47 -117 -3 -117 -4 -9 43 c-6 29 -5 48 3 56 6 8 43
19 83 25 39 7 104 18 142 25 110 22 122 20 128 -11z m879 -123 c9 -80 22 -188
28 -241 l12 -96 35 -17 c34 -16 35 -19 30 -57 -3 -22 -7 -42 -9 -44 -1 -1
-129 -4 -283 -6 l-280 -4 0 189 0 190 55 -3 c30 -1 106 -6 168 -9 l112 -7 0
47 0 47 -117 3 -118 3 -3 47 -3 47 38 7 c21 3 90 17 153 30 176 35 161 45 182
-126z m344 105 c3 -19 7 -35 9 -35 1 0 69 7 151 15 137 13 220 18 251 16 9 -1
11 -22 7 -78 -24 -377 -35 -508 -44 -517 -5 -5 -29 -6 -62 0 l-53 9 -3 214 -2
214 -38 -7 c-20 -3 -75 -11 -120 -18 l-84 -11 6 -51 c9 -85 11 -320 3 -333 -5
-8 -29 -13 -56 -13 l-48 0 -17 113 c-58 368 -75 492 -68 499 8 7 55 14 119 16
41 2 42 1 49 -33z m1074 -47 c0 -66 -32 -422 -46 -515 l-5 -33 -122 1 c-67 1
-167 4 -222 8 l-100 6 -12 115 c-31 311 -42 443 -37 451 3 5 126 9 275 9 l269
0 0 -42z m-1962 -260 l-3 -283 -72 -3 -73 -3 0 38 c-1 37 49 496 56 521 2 7
21 12 49 12 l45 0 -2 -282z m678 -478 l542 0 4 -57 c5 -85 -9 -184 -30 -213
-38 -51 -113 -33 -154 36 -16 28 -26 34 -54 34 -31 0 -34 -3 -45 -42 -16 -61
-46 -91 -83 -84 -37 8 -63 31 -87 79 -18 34 -22 37 -64 37 -43 0 -45 -1 -39
-24 8 -33 -13 -104 -36 -116 -59 -32 -128 10 -150 90 -11 40 -13 42 -42 36
-17 -3 -41 -6 -54 -6 -22 0 -24 -4 -24 -50 0 -75 -44 -110 -101 -80 -22 12
-59 80 -59 110 0 17 -6 20 -43 20 -42 0 -44 -1 -55 -39 -38 -124 -154 -119
-185 9 l-14 55 -67 3 c-61 3 -66 1 -66 -18 0 -37 -44 -70 -91 -70 -57 0 -89
29 -89 82 0 35 -2 38 -29 38 -16 0 -42 3 -59 6 -26 5 -31 3 -34 -17 -2 -17
-10 -25 -29 -27 -21 -2 -34 6 -62 38 -45 53 -100 157 -91 172 5 8 113 10 427
5 231 -4 664 -7 963 -7z"/>
<path d="M2256 3794 c-29 -26 -51 -28 -101 -10 -20 8 -20 7 -1 -8 11 -9 33
-16 48 -16 37 0 88 26 88 45 0 19 0 19 -34 -11z"/>
<path d="M2665 3718 c-204 -38 -455 -145 -455 -193 0 -22 19 -28 90 -27 226 4
665 183 554 226 -22 9 -130 5 -189 -6z"/>
<path d="M1600 3286 c-98 -13 -97 -10 -55 -119 l23 -62 58 0 58 0 37 90 c21
50 38 93 38 98 1 9 -53 7 -159 -7z"/>
<path d="M1582 2799 c15 -62 29 -114 31 -116 3 -2 51 -5 107 -6 l103 -2 33 95
c19 52 30 97 26 101 -8 8 -248 39 -298 39 l-30 0 28 -111z"/>
<path d="M2281 2969 c0 -13 10 -85 22 -159 l22 -135 93 -14 c50 -8 94 -12 97
-9 9 8 53 318 46 322 -3 2 -68 7 -143 11 l-138 7 1 -23z"/>
<path d="M983 2377 c-57 -6 -93 -14 -92 -21 0 -6 12 -45 27 -86 l27 -75 53 0
54 0 25 60 c13 33 31 77 38 98 l14 37 -27 -2 c-15 0 -69 -5 -119 -11z"/>
<path d="M950 1928 c10 -40 23 -92 29 -116 l12 -43 102 3 101 3 31 92 31 93
-30 4 c-81 13 -263 36 -277 36 -15 0 -15 -6 1 -72z"/>
<path d="M1688 1892 c-24 -3 -28 -8 -28 -36 0 -19 3 -48 6 -65 l7 -31 93 0 94
0 0 60 c0 33 -1 63 -2 68 -3 7 -118 10 -170 4z"/>
<path d="M2520 1868 c0 -18 3 -50 6 -70 l7 -38 92 0 c105 0 105 0 105 93 l0
47 -105 0 -105 0 0 -32z"/>
<path d="M3875 2053 c3 -15 14 -84 26 -153 11 -68 22 -126 23 -127 5 -6 176
-26 180 -22 2 2 11 63 20 134 10 72 19 140 22 152 7 26 -6 29 -168 39 l-108 6
5 -29z"/>
</g>
</svg>
